PathFileType	4	(X/Y/Z)	C:\Users\WrightLab\Desktop\Jo\P1_boxCal18.trc
DataRate	CameraRate	NumFrames	NumMarkers	Units	OrigDataRate	OrigDataStartFrame	OrigNumFrames
100.00	100.00	       14	19	mm	100.00	210	       559
Frame#	Time	Headset_Front			Headset_Back			Headset_Left			Headset_Right			Left_Shoulder			Right_Shoulder			Sternum			C7			Left Elbow			Right Elbow			Left Wrist			Right Wrist			Left ASIS			Right ASIS			S2			Left Knee			Right Knee			Left Ankle			Right Ankle			
		X1	Y1	Z1	X2	Y2	Z2	X3	Y3	Z3	X4	Y4	Z4	X5	Y5	Z5	X6	Y6	Z6	X7	Y7	Z7	X8	Y8	Z8	X9	Y9	Z9	X10	Y10	Z10	X11	Y11	Z11	X12	Y12	Z12	X13	Y13	Z13	X14	Y14	Z14	X15	Y15	Z15	X16	Y16	Z16	X17	Y17	Z17	X18	Y18	Z18	X19	Y19	Z19	

210	2.090	-405.07135	1426.77441	425.27863	-534.41345	1530.81982	166.65692	-384.15054	1467.56616	222.69661	-544.92773	1459.53833	382.64853	-351.57263	1285.74329	127.03943	-669.72229	1288.65784	337.75528	-449.47388	1195.67603	361.73489	-562.69147	1284.34338	132.85361	-299.97897	967.29791	58.38424	-763.10321	1017.71814	367.22079	-172.82838	806.94373	99.61619	-783.67078	809.08148	492.09949	-352.29913	908.81512	328.90997	-524.53143	909.04163	426.49924	-591.83014	911.40350	101.80339	-383.95709	448.73828	194.58162	-630.75470	505.05246	474.98367	-463.22308	85.30660	207.47600	-720.07599	183.61624	306.33438	
211	2.100	-400.61383	1427.42053	432.65482	-530.93030	1531.22424	174.39606	-380.28046	1468.70544	228.47238	-540.71802	1460.12793	390.51831	-347.92566	1286.49512	134.92599	-665.05096	1289.00085	345.73410	-444.49731	1196.11035	369.31799	-557.79285	1284.98376	140.96167	-292.55719	968.21484	67.64956	-759.07672	1018.64661	375.35385	-164.41789	809.67871	110.55968	-779.76459	810.55627	502.09192	-347.68719	909.77637	333.65552	-518.26270	909.97168	433.93256	-588.99402	912.16187	110.40245	-381.68304	448.71606	195.49033	-618.30133	507.20444	485.61246	-463.13840	85.45362	207.51477	-704.69226	175.62299	331.00986	
212	2.110	-395.62515	1427.80103	439.97079	-527.57312	1531.40967	182.35252	-376.26938	1469.03406	236.59094	-536.45819	1460.52698	398.32245	-343.46124	1287.50317	141.85228	-660.30530	1289.24170	353.53748	-440.69238	1197.08081	376.73230	-553.62927	1285.16260	148.21001	-285.09335	969.39899	76.40397	-755.37830	1019.21875	383.85715	-155.78462	811.35193	121.19104	-776.23865	812.05792	511.78961	-342.97183	911.28412	338.21387	-511.41309	910.78479	441.47574	-586.68060	912.57928	118.36574	-380.16885	449.07056	196.49069	-605.46106	508.95200	494.74142	-463.04059	85.61034	207.55382	-689.91034	169.96078	356.17142	
213	2.120	-391.36771	1428.43408	447.62936	-523.94403	1531.47327	190.07063	-372.60004	1469.25500	246.41034	-531.99023	1460.46191	406.66336	-339.61084	1287.90466	149.48289	-655.67682	1289.42761	361.45554	-434.86304	1196.71594	383.76321	-549.61731	1285.27417	156.60199	-277.87231	969.96344	84.56875	-751.68799	1020.07159	392.21515	-147.79636	813.42963	131.20805	-772.42694	812.79773	521.64612	-338.35330	911.16949	344.17874	-505.45941	911.39838	449.54742	-584.30005	913.31274	127.03017	-378.99332	449.44153	197.08798	-593.58258	511.35117	503.58850	-463.04623	86.10844	207.78853	-674.58209	163.55096	380.88809	
214	2.130	-386.36484	1428.75549	455.05548	-520.24017	1531.29688	197.88278	-368.40283	1469.66907	252.37375	-527.92963	1460.12915	414.23947	-334.97314	1288.01611	157.55083	-650.65674	1288.79443	369.79303	-429.00070	1195.75781	390.64511	-545.19745	1285.21594	164.53989	-270.55341	970.71619	93.74026	-747.52295	1020.41522	400.54779	-139.99632	814.69214	142.27808	-768.32141	813.95789	530.72650	-333.11270	911.90125	348.81644	-498.53964	911.20599	457.20596	-581.46765	913.22009	136.17831	-377.44391	449.85452	200.32851	-581.54456	512.04364	512.11084	-463.82703	86.43652	207.11057	-658.40576	156.51054	406.67413	
215	2.140	-382.07928	1428.88501	462.81348	-516.77490	1531.03870	206.02832	-364.78052	1470.28662	259.19650	-523.13342	1459.82764	422.06418	-330.56088	1287.58459	164.91974	-645.99530	1288.88464	377.59799	-426.00555	1196.33337	399.50183	-540.69250	1285.01550	172.30754	-263.58688	970.82489	102.44420	-743.59784	1020.60590	408.68619	-132.20090	815.86121	153.40378	-764.38898	814.51691	540.55914	-326.83664	912.00000	355.00259	-492.34006	911.38019	464.76083	-579.20270	913.32294	144.93202	-376.10580	450.50363	201.77475	-570.10284	513.52771	521.19263	-464.10806	86.69895	207.21570	-641.19434	150.07555	432.22345	
216	2.150	-377.03174	1428.87390	470.26709	-513.14374	1530.49097	214.04224	-360.22650	1469.83118	267.56259	-519.47461	1459.69458	430.36124	-325.76147	1288.08716	172.58496	-641.04675	1288.21472	386.01700	-420.01999	1195.02271	405.96606	-536.65045	1285.01880	180.23776	-256.07910	971.05670	112.22361	-739.87396	1020.64697	417.25824	-124.01444	817.16968	163.53610	-760.83356	814.81067	550.17285	-322.15668	911.42352	360.80273	-485.66193	910.71625	471.97269	-577.04675	913.17682	154.39006	-375.60532	451.04587	204.86031	-558.64758	513.41809	528.88342	-464.17026	88.39303	206.24478	-622.69080	144.08339	458.66852	
217	2.160	-372.95157	1428.99841	478.50381	-509.41742	1530.11255	222.30463	-356.77039	1469.77917	276.37305	-514.69464	1459.07312	438.70706	-321.95654	1287.25000	179.83070	-636.32544	1287.67346	394.40186	-415.77866	1195.25928	414.46603	-532.40094	1284.39905	188.41988	-249.76797	970.83960	121.99551	-735.11072	1020.01953	425.25220	-116.12651	817.96375	174.81068	-757.36188	815.31281	559.44055	-315.66272	910.96222	367.01950	-479.84018	909.89172	480.14694	-574.71143	912.64771	163.50203	-373.86783	451.19760	208.63475	-547.43292	513.25256	536.55756	-465.23038	87.65821	207.10066	-603.91260	137.73882	485.10394	
218	2.170	-368.10498	1428.05676	486.55908	-505.79071	1529.47437	230.74878	-352.51721	1470.14832	281.67358	-510.35229	1458.24158	446.62051	-317.27408	1286.76782	187.60286	-631.49017	1286.88379	403.10089	-411.29025	1194.99133	421.04037	-528.01965	1284.22632	196.49234	-241.98245	970.05908	130.50171	-731.14813	1019.73712	433.75012	-108.64594	818.97253	185.69806	-753.17816	815.10272	568.37189	-310.30634	910.50354	373.79700	-473.27728	909.10968	487.84079	-571.94501	912.24207	172.66287	-372.99539	451.35098	212.08292	-536.52917	511.90024	544.04602	-464.99084	88.01643	207.13641	-583.78229	133.03113	511.15732	
219	2.180	-363.31686	1427.32117	491.46783	-501.90146	1528.69812	238.98650	-348.71954	1469.20007	292.86182	-505.71146	1457.19141	455.34793	-312.89438	1285.85962	195.49303	-626.44012	1285.74182	411.55637	-405.32150	1192.70435	429.12689	-523.59753	1283.44568	204.99904	-234.69121	969.85748	140.58589	-726.55121	1019.29523	441.90347	-100.89555	819.74426	196.60057	-749.23016	814.52808	577.33075	-304.81943	909.04510	379.52515	-466.90494	907.62726	496.19894	-569.13342	911.70630	181.49796	-371.44482	451.34650	215.86911	-526.31927	510.37442	550.19720	-464.66638	88.36668	207.17191	-564.13330	127.99976	534.77704	
220	2.190	-359.03320	1427.27087	502.56281	-498.02667	1527.89600	247.34074	-344.23569	1468.98071	298.84158	-501.64871	1456.29749	463.49426	-308.52206	1285.13208	202.96739	-621.41174	1284.73401	420.05804	-401.41763	1192.49036	439.02991	-519.31750	1282.71509	212.87135	-228.37778	969.44879	150.19855	-722.46094	1018.42590	450.66718	-94.23289	819.87268	207.97435	-745.60565	814.36548	586.22736	-299.50531	907.84033	385.62146	-460.51187	906.27277	503.93066	-566.46033	911.44531	191.16165	-369.71207	451.68182	219.21545	-516.76959	508.57959	555.87177	-464.53925	88.56150	207.44395	-544.03003	125.68646	560.49713	
221	2.200	-353.81305	1426.09546	510.39529	-494.04922	1526.70410	255.72452	-340.15405	1468.01770	309.33871	-496.17926	1454.48926	471.62592	-304.16541	1283.79724	211.15373	-616.10773	1283.44385	428.88739	-395.33710	1190.74170	444.90216	-515.01947	1281.49268	221.67728	-222.30588	967.73395	160.51129	-717.62915	1017.31952	458.76321	-87.10484	820.09888	218.37936	-741.34009	813.44293	594.44922	-294.62082	905.96948	392.32483	-454.38251	904.86145	512.76117	-563.08112	910.34467	200.38129	-368.02127	450.36539	224.00566	-507.73245	506.70377	561.69135	-464.47116	88.72089	207.49677	-523.59070	124.36304	583.62561	
222	2.210	-348.52942	1424.74573	518.41943	-490.20956	1525.49280	264.36478	-336.01495	1467.62976	315.34842	-492.13376	1453.39319	480.31189	-299.97858	1282.73193	218.50124	-610.93127	1282.22852	438.22018	-390.53653	1189.32849	453.78067	-510.17908	1280.57788	229.57434	-214.99037	967.70227	169.93132	-713.17804	1016.17169	467.51276	-80.55634	820.62756	229.26784	-737.23859	811.89331	602.62097	-288.71606	905.23346	398.64276	-447.28708	903.03857	520.12646	-559.58612	909.25189	209.95905	-366.27267	450.01352	227.52617	-499.62912	503.70633	567.22705	-464.15915	89.37086	208.09923	-501.74380	125.20454	609.25690	
223	2.220	-345.02606	1422.66284	522.14618	-486.38840	1524.54004	273.31351	-331.94376	1466.41858	325.07953	-487.03806	1451.68652	488.91891	-295.51663	1281.84558	226.45190	-605.60669	1280.31311	447.32092	-384.69888	1187.89209	461.04208	-506.38837	1279.52686	238.31340	-208.98949	966.70654	179.26056	-708.14783	1014.99298	475.80301	-74.30215	820.33826	240.44954	-733.40820	810.76910	610.68182	-284.08795	903.50244	405.03622	-441.23727	902.10736	529.46954	-556.35736	908.78687	219.74931	-362.62701	449.09912	232.16656	-491.23001	500.32672	572.91510	-463.67761	89.98682	208.35730	-478.93515	124.70327	628.88068	
